solid Exported from Blender-2.92.0
facet normal 0.000000 0.000000 1.000000
outer loop
vertex 1.000000 1.000000 1.000000
vertex -1.000000 1.000000 1.000000
vertex -1.000000 -1.000000 1.000000
endloop
endfacet
facet normal 0.000000 0.000000 1.000000
outer loop
vertex 1.000000 1.000000 1.000000
vertex -1.000000 -1.000000 1.000000
vertex 1.000000 -1.000000 1.000000
endloop
endfacet
facet normal 0.000000 -1.000000 0.000000
outer loop
vertex 1.000000 -1.000000 -1.000000
vertex 1.000000 -1.000000 1.000000
vertex -1.000000 -1.000000 1.000000
endloop
endfacet
facet normal 0.000000 -1.000000 0.000000
outer loop
vertex 1.000000 -1.000000 -1.000000
vertex -1.000000 -1.000000 1.000000
vertex -1.000000 -1.000000 -1.000000
endloop
endfacet
facet normal -1.000000 0.000000 0.000000
outer loop
vertex -1.000000 -1.000000 -1.000000
vertex -1.000000 -1.000000 1.000000
vertex -1.000000 1.000000 1.000000
endloop
endfacet
facet normal -1.000000 0.000000 0.000000
outer loop
vertex -1.000000 -1.000000 -1.000000
vertex -1.000000 1.000000 1.000000
vertex -1.000000 1.000000 -1.000000
endloop
endfacet
facet normal 0.000000 0.000000 -1.000000
outer loop
vertex -1.000000 1.000000 -1.000000
vertex 1.000000 1.000000 -1.000000
vertex 1.000000 -1.000000 -1.000000
endloop
endfacet
facet normal 0.000000 0.000000 -1.000000
outer loop
vertex -1.000000 1.000000 -1.000000
vertex 1.000000 -1.000000 -1.000000
vertex -1.000000 -1.000000 -1.000000
endloop
endfacet
facet normal 1.000000 0.000000 0.000000
outer loop
vertex 1.000000 1.000000 -1.000000
vertex 1.000000 1.000000 1.000000
vertex 1.000000 -1.000000 1.000000
endloop
endfacet
facet normal 1.000000 0.000000 0.000000
outer loop
vertex 1.000000 1.000000 -1.000000
vertex 1.000000 -1.000000 1.000000
vertex 1.000000 -1.000000 -1.000000
endloop
endfacet
facet normal 0.000000 1.000000 0.000000
outer loop
vertex -1.000000 1.000000 -1.000000
vertex -1.000000 1.000000 1.000000
vertex 1.000000 1.000000 1.000000
endloop
endfacet
facet normal 0.000000 1.000000 0.000000
outer loop
vertex -1.000000 1.000000 -1.000000
vertex 1.000000 1.000000 1.000000
vertex 1.000000 1.000000 -1.000000
endloop
endfacet
facet normal 1.000000 0.000000 0.000000
outer loop
vertex 12.000000 -15.000000 20.000000
vertex 12.000000 -15.000000 0.000000
vertex 12.000000 5.000000 0.000000
endloop
endfacet
facet normal 1.000000 0.000000 0.000000
outer loop
vertex 12.000000 -15.000000 20.000000
vertex 12.000000 5.000000 0.000000
vertex 12.000000 5.000000 20.000000
endloop
endfacet
facet normal -1.000000 0.000000 0.000000
outer loop
vertex -8.000000 5.000000 20.000000
vertex -8.000000 5.000000 0.000000
vertex -8.000000 -15.000000 0.000000
endloop
endfacet
facet normal -1.000000 0.000000 0.000000
outer loop
vertex -8.000000 5.000000 20.000000
vertex -8.000000 -15.000000 0.000000
vertex -8.000000 -15.000000 20.000000
endloop
endfacet
facet normal 0.000000 1.000000 0.000000
outer loop
vertex 12.000000 5.000000 20.000000
vertex 12.000000 5.000000 0.000000
vertex -8.000000 5.000000 0.000000
endloop
endfacet
facet normal 0.000000 1.000000 0.000000
outer loop
vertex 12.000000 5.000000 20.000000
vertex -8.000000 5.000000 0.000000
vertex -8.000000 5.000000 20.000000
endloop
endfacet
facet normal 0.000000 0.000000 1.000000
outer loop
vertex 12.000000 5.000000 20.000000
vertex -8.000000 5.000000 20.000000
vertex -8.000000 -15.000000 20.000000
endloop
endfacet
facet normal 0.000000 0.000000 1.000000
outer loop
vertex 12.000000 5.000000 20.000000
vertex -8.000000 -15.000000 20.000000
vertex 12.000000 -15.000000 20.000000
endloop
endfacet
facet normal 0.000000 0.000000 -1.000000
outer loop
vertex 12.000000 -15.000000 0.000000
vertex -8.000000 -15.000000 0.000000
vertex -8.000000 5.000000 0.000000
endloop
endfacet
facet normal 0.000000 0.000000 -1.000000
outer loop
vertex 12.000000 -15.000000 0.000000
vertex -8.000000 5.000000 0.000000
vertex 12.000000 5.000000 0.000000
endloop
endfacet
facet normal 0.000000 -1.000000 0.000000
outer loop
vertex -8.000000 -15.000000 20.000000
vertex -8.000000 -15.000000 0.000000
vertex 12.000000 -15.000000 0.000000
endloop
endfacet
facet normal 0.000000 -1.000000 0.000000
outer loop
vertex -8.000000 -15.000000 20.000000
vertex 12.000000 -15.000000 0.000000
vertex 12.000000 -15.000000 20.000000
endloop
endfacet
endsolid Exported from Blender-2.92.0
